<mxfile host="app.diagrams.net" modified="2023-03-31T08:38:24.367Z" agent="Mozilla/5.0 (Macintosh; Intel Mac OS X 10.15; rv:109.0) Gecko/20100101 Firefox/111.0" etag="LpJkZNOZAtCYcpV_xmQj" version="21.1.2" type="github">
  <diagram name="第 1 页" id="qdPQhETzGPrApo1iKjcH">
    <mxGraphModel dx="1222" dy="701" grid="1" gridSize="10" guides="1" tooltips="1" connect="1" arrows="1" fold="1" page="1" pageScale="1" pageWidth="827" pageHeight="1169" math="0" shadow="0">
      <root>
        <mxCell id="0" />
        <mxCell id="1" parent="0" />
        <mxCell id="vdYzWiyBqyGC7OfpQ0t5-1" value="" style="rounded=0;whiteSpace=wrap;html=1;" vertex="1" parent="1">
          <mxGeometry x="200" y="200" width="120" height="60" as="geometry" />
        </mxCell>
      </root>
    </mxGraphModel>
  </diagram>
</mxfile>
